HIERARCHY
ROOT Hips
{
	OFFSET 0.000000 83.214638 0.000000
	CHANNELS 6 Xposition Yposition Zposition Xrotation Yrotation Zrotation
	JOINT Pelvis
	{
		OFFSET 0.000000 0.000000 0.000000
		CHANNELS 3 Xrotation Yrotation Zrotation
		JOINT LeftUpLeg
		{
			OFFSET 8.479700 -4.795502 -0.379100
			CHANNELS 3 Xrotation Yrotation Zrotation
			JOINT LeftLeg
			{
				OFFSET 0.024144 -32.555107 0.112900
				CHANNELS 3 Xrotation Yrotation Zrotation
				JOINT LeftFoot
				{
					OFFSET -0.024144 -32.638630 -3.012600
					CHANNELS 3 Xrotation Yrotation Zrotation
					JOINT LeftToeBase
					{
						OFFSET 0.970200 -13.225400 11.864200
						CHANNELS 3 Xrotation Yrotation Zrotation
						End Site
						{
							OFFSET 0.000000 12.319262 0.000000
						}
					}
					JOINT LFootTongue
					{
						OFFSET 1.142400 -1.059800 6.665200
						CHANNELS 3 Xrotation Yrotation Zrotation
						End Site
						{
							OFFSET 0.000000 12.319262 0.000000
						}
					}
				}
				JOINT LeftPantLeg
				{
					OFFSET 0.918482 -16.533964 -2.284700
					CHANNELS 3 Xrotation Yrotation Zrotation
					End Site
					{
						OFFSET 0.350399 24.744368 0.000000
					}
				}
			}
		}
		JOINT RightUpLeg
		{
			OFFSET -8.479700 -4.795502 -0.379100
			CHANNELS 3 Xrotation Yrotation Zrotation
			JOINT RightLeg
			{
				OFFSET -0.023144 -32.555092 0.112900
				CHANNELS 3 Xrotation Yrotation Zrotation
				JOINT RightFoot
				{
					OFFSET 0.023144 -32.638641 -3.012700
					CHANNELS 3 Xrotation Yrotation Zrotation
					JOINT RightToeBase
					{
						OFFSET -0.970200 -13.225400 11.864200
						CHANNELS 3 Xrotation Yrotation Zrotation
						End Site
						{
							OFFSET 0.000000 12.319244 0.000000
						}
					}
					JOINT RFootTongue
					{
						OFFSET -1.142200 -1.059800 6.665200
						CHANNELS 3 Xrotation Yrotation Zrotation
						End Site
						{
							OFFSET 0.000000 12.319243 0.000000
						}
					}
				}
				JOINT RightPantLeg
				{
					OFFSET -0.919482 -16.533978 -2.284800
					CHANNELS 3 Xrotation Yrotation Zrotation
					End Site
					{
						OFFSET -0.350400 24.744419 0.000000
					}
				}
			}
		}
	}
	JOINT Spine
	{
		OFFSET 0.000000 7.722000 1.166200
		CHANNELS 3 Xrotation Yrotation Zrotation
		JOINT Spine1
		{
			OFFSET 0.000000 12.024101 0.248800
			CHANNELS 3 Xrotation Yrotation Zrotation
			JOINT Spine2
			{
				OFFSET 0.000000 11.502998 -0.491200
				CHANNELS 3 Xrotation Yrotation Zrotation
				JOINT Neck
				{
					OFFSET 0.000000 18.430702 -3.123100
					CHANNELS 3 Xrotation Yrotation Zrotation
					JOINT Head
					{
						OFFSET 0.000000 9.051102 1.034000
						CHANNELS 3 Xrotation Yrotation Zrotation
						JOINT HairB
						{
							OFFSET 0.208400 24.786102 24.822300
							CHANNELS 3 Xrotation Yrotation Zrotation
							End Site
							{
								OFFSET 0.000000 32.263779 0.000000
							}
						}
						JOINT HairA
						{
							OFFSET -7.081100 24.428299 23.196600
							CHANNELS 3 Xrotation Yrotation Zrotation
							End Site
							{
								OFFSET 0.000000 32.263779 0.000000
							}
						}
						JOINT Hat
						{
							OFFSET 16.728800 15.048294 -15.439601
							CHANNELS 3 Xrotation Yrotation Zrotation
							End Site
							{
								OFFSET 0.000000 32.263779 0.000000
							}
						}
					}
				}
				JOINT LeftShoulder
				{
					OFFSET 6.197800 13.665199 -4.064700
					CHANNELS 3 Xrotation Yrotation Zrotation
					JOINT LeftArm
					{
						OFFSET 7.778100 -0.187103 -1.709300
						CHANNELS 3 Xrotation Yrotation Zrotation
						JOINT LeftForeArm
						{
							OFFSET 22.049376 0.000000 0.000000
							CHANNELS 3 Xrotation Yrotation Zrotation
							JOINT LeftHand
							{
								OFFSET 23.009392 0.000000 0.000000
								CHANNELS 3 Xrotation Yrotation Zrotation
								JOINT LeftHandThumb1
								{
									OFFSET 3.507191 -2.063065 3.133727
									CHANNELS 3 Xrotation Yrotation Zrotation
									JOINT LeftHandThumb2
									{
										OFFSET 3.101337 -1.790558 1.790558
										CHANNELS 3 Xrotation Yrotation Zrotation
										JOINT LeftHandThumb3
										{
											OFFSET 3.058640 -1.765907 1.765906
											CHANNELS 3 Xrotation Yrotation Zrotation
											End Site
											{
												OFFSET -0.415260 3.926476 -0.049563
											}
										}
									}
								}
								JOINT LeftHandIndex1
								{
									OFFSET 11.334419 -0.901459 3.706815
									CHANNELS 3 Xrotation Yrotation Zrotation
									JOINT LeftHandIndex2
									{
										OFFSET 3.283112 0.000000 0.000000
										CHANNELS 3 Xrotation Yrotation Zrotation
										JOINT LeftHandIndex3
										{
											OFFSET 3.323853 0.000000 0.000000
											CHANNELS 3 Xrotation Yrotation Zrotation
											End Site
											{
												OFFSET -1.135597 3.097809 0.402452
											}
										}
									}
								}
								JOINT LeftHandMiddle1
								{
									OFFSET 11.335861 0.000000 0.000000
									CHANNELS 3 Xrotation Yrotation Zrotation
									JOINT LeftHandMiddle2
									{
										OFFSET 3.410492 0.000000 0.000000
										CHANNELS 3 Xrotation Yrotation Zrotation
										JOINT LeftHandMiddle3
										{
											OFFSET 3.312172 0.000000 0.000000
											CHANNELS 3 Xrotation Yrotation Zrotation
											End Site
											{
												OFFSET -1.150200 3.080154 0.400270
											}
										}
									}
								}
								JOINT LeftHandRing1
								{
									OFFSET 11.514786 -0.013176 -3.003090
									CHANNELS 3 Xrotation Yrotation Zrotation
									JOINT LeftHandRing2
									{
										OFFSET 3.053307 0.000000 0.000000
										CHANNELS 3 Xrotation Yrotation Zrotation
										JOINT LeftHandRing3
										{
											OFFSET 3.295807 0.000000 0.000000
											CHANNELS 3 Xrotation Yrotation Zrotation
											End Site
											{
												OFFSET -1.281006 3.013344 0.375733
											}
										}
									}
								}
								JOINT LeftHandPinky1
								{
									OFFSET 10.518692 -0.960396 -5.730441
									CHANNELS 3 Xrotation Yrotation Zrotation
									JOINT LeftHandPinky2
									{
										OFFSET 2.861649 0.000000 0.000000
										CHANNELS 3 Xrotation Yrotation Zrotation
										JOINT LeftHandPinky3
										{
											OFFSET 2.863380 0.000000 0.000000
											CHANNELS 3 Xrotation Yrotation Zrotation
											End Site
											{
												OFFSET -0.843597 2.711159 0.369971
											}
										}
									}
								}
							}
							JOINT LSleeve
							{
								OFFSET 6.676277 -0.344902 -1.011730
								CHANNELS 3 Xrotation Yrotation Zrotation
								End Site
								{
									OFFSET 0.000000 14.885353 0.000000
								}
							}
						}
					}
				}
				JOINT RightShoulder
				{
					OFFSET -6.197800 13.665199 -4.064700
					CHANNELS 3 Xrotation Yrotation Zrotation
					JOINT RightArm
					{
						OFFSET -7.778100 -0.187103 -1.709300
						CHANNELS 3 Xrotation Yrotation Zrotation
						JOINT RightForeArm
						{
							OFFSET -22.049376 0.000000 0.000000
							CHANNELS 3 Xrotation Yrotation Zrotation
							JOINT RightHand
							{
								OFFSET -23.009392 0.000000 0.000000
								CHANNELS 3 Xrotation Yrotation Zrotation
								JOINT RightHandThumb1
								{
									OFFSET -3.507191 -2.063065 3.133727
									CHANNELS 3 Xrotation Yrotation Zrotation
									JOINT RightHandThumb2
									{
										OFFSET -3.101337 -1.790558 1.790558
										CHANNELS 3 Xrotation Yrotation Zrotation
										JOINT RightHandThumb3
										{
											OFFSET -3.058640 -1.765907 1.765906
											CHANNELS 3 Xrotation Yrotation Zrotation
											End Site
											{
												OFFSET 0.415260 3.926476 -0.049563
											}
										}
									}
								}
								JOINT RightHandIndex1
								{
									OFFSET -11.334419 -0.901459 3.706815
									CHANNELS 3 Xrotation Yrotation Zrotation
									JOINT RightHandIndex2
									{
										OFFSET -3.283112 0.000000 0.000000
										CHANNELS 3 Xrotation Yrotation Zrotation
										JOINT RightHandIndex3
										{
											OFFSET -3.323853 0.000000 0.000000
											CHANNELS 3 Xrotation Yrotation Zrotation
											End Site
											{
												OFFSET 1.135597 3.097809 0.402452
											}
										}
									}
								}
								JOINT RightHandMiddle1
								{
									OFFSET -11.335861 0.000000 0.000000
									CHANNELS 3 Xrotation Yrotation Zrotation
									JOINT RightHandMiddle2
									{
										OFFSET -3.410492 0.000000 0.000000
										CHANNELS 3 Xrotation Yrotation Zrotation
										JOINT RightHandMiddle3
										{
											OFFSET -3.312172 0.000000 0.000000
											CHANNELS 3 Xrotation Yrotation Zrotation
											End Site
											{
												OFFSET 1.150200 3.080154 0.400270
											}
										}
									}
								}
								JOINT RightHandRing1
								{
									OFFSET -11.514786 -0.013176 -3.003090
									CHANNELS 3 Xrotation Yrotation Zrotation
									JOINT RightHandRing2
									{
										OFFSET -3.053307 0.000000 0.000000
										CHANNELS 3 Xrotation Yrotation Zrotation
										JOINT RightHandRing3
										{
											OFFSET -3.295807 0.000000 0.000000
											CHANNELS 3 Xrotation Yrotation Zrotation
											End Site
											{
												OFFSET 1.281006 3.013344 0.375733
											}
										}
									}
								}
								JOINT RightHandPinky1
								{
									OFFSET -10.518692 -0.960396 -5.730441
									CHANNELS 3 Xrotation Yrotation Zrotation
									JOINT RightHandPinky2
									{
										OFFSET -2.861649 0.000000 0.000000
										CHANNELS 3 Xrotation Yrotation Zrotation
										JOINT RightHandPinky3
										{
											OFFSET -2.863380 0.000000 0.000000
											CHANNELS 3 Xrotation Yrotation Zrotation
											End Site
											{
												OFFSET 0.843597 2.711159 0.369971
											}
										}
									}
								}
							}
							JOINT RSleeve
							{
								OFFSET -6.676277 -0.344902 -1.011730
								CHANNELS 3 Xrotation Yrotation Zrotation
								End Site
								{
									OFFSET 0.000000 14.885353 0.000000
								}
							}
						}
					}
				}
				JOINT Backpack
				{
					OFFSET 0.000000 -2.471497 36.677502
					CHANNELS 3 Xrotation Yrotation Zrotation
					End Site
					{
						OFFSET 0.000000 20.427315 0.000000
					}
				}
				JOINT Hood
				{
					OFFSET 0.000000 18.754097 -10.431000
					CHANNELS 3 Xrotation Yrotation Zrotation
					JOINT Hood1
					{
						OFFSET 0.000000 -5.011002 -7.685901
						CHANNELS 3 Xrotation Yrotation Zrotation
						End Site
						{
							OFFSET 0.000000 9.175140 0.000000
						}
					}
				}
				JOINT LHoodieString
				{
					OFFSET 5.250500 16.397697 3.089900
					CHANNELS 3 Xrotation Yrotation Zrotation
					JOINT LHoodieString1
					{
						OFFSET 0.257700 -6.364304 3.694600
						CHANNELS 3 Xrotation Yrotation Zrotation
						JOINT LHoodieString2
						{
							OFFSET 0.000000 -9.643799 2.679100
							CHANNELS 3 Xrotation Yrotation Zrotation
							End Site
							{
								OFFSET 0.000000 10.009018 0.000000
							}
						}
					}
				}
				JOINT RHoodieString
				{
					OFFSET -5.250500 16.397697 3.089900
					CHANNELS 3 Xrotation Yrotation Zrotation
					JOINT RHoodieString1
					{
						OFFSET -0.257700 -6.364304 3.694600
						CHANNELS 3 Xrotation Yrotation Zrotation
						JOINT RHoodieString2
						{
							OFFSET 0.000000 -9.643799 2.679100
							CHANNELS 3 Xrotation Yrotation Zrotation
							End Site
							{
								OFFSET 0.000000 10.009018 0.000000
							}
						}
					}
				}
			}
			JOINT LBackpack_Strap
			{
				OFFSET 15.223200 -7.719803 -6.610900
				CHANNELS 3 Xrotation Yrotation Zrotation
				End Site
				{
					OFFSET 0.000000 16.040596 0.000000
				}
			}
			JOINT RBackpack_Strap
			{
				OFFSET -15.223000 -7.719803 -6.610900
				CHANNELS 3 Xrotation Yrotation Zrotation
				End Site
				{
					OFFSET 0.000000 16.040596 0.000000
				}
			}
		}
	}
	JOINT BoyFacialAnim_Joint
	{
		OFFSET 1.000000 -82.208099 -1.550900
		CHANNELS 3 Xrotation Yrotation Zrotation
		End Site
		{
			OFFSET 0.000000 30.012791 0.000000
		}
	}
}
MOTION
Frames: 4
Frame Time: 0.016667
0.865859 74.141174 -0.372754 -4.052011 -61.123855 -2.249040 -0.000000 -0.000000 -0.000000 -33.366714 11.836494 28.925790 43.222544 -8.742890 -9.945235 -9.069029 -2.905712 -7.512122 0.000000 -0.000000 0.000000 0.000000 -0.000000 0.000000 0.000000 -0.000000 0.000001 -29.532085 -9.086464 -22.189777 45.956426 2.772079 -7.326121 -16.995882 4.695308 19.866929 -0.000000 0.000002 0.000000 -0.000000 0.000002 0.000000 0.000001 -0.000000 -0.000001 10.530500 0.420996 -1.721693 7.138506 0.481492 -4.840606 7.341886 0.512797 -4.809180 -23.259403 25.805464 11.809880 -6.291534 25.717211 -2.641170 -0.000000 -0.000000 0.000000 -0.000000 -0.000000 0.000000 -0.000000 -0.000000 0.000000 -6.367306 -10.788150 -3.787806 -21.873377 6.546984 -38.737438 3.298303 -47.813612 1.501514 23.526226 -7.456292 15.579778 -1.743991 -11.605061 7.087502 1.175771 16.638493 -3.372731 0.000003 0.000002 0.000002 13.261898 -0.994771 14.608072 -0.163787 0.326173 -27.178241 -0.000001 0.000004 -0.000001 8.530538 -0.377311 3.011986 0.228018 0.647994 -25.974487 -0.000002 -0.000001 -0.000000 6.138291 3.128080 -12.283905 0.030972 0.295632 -26.198147 -0.000003 0.000001 0.000003 -5.593212 7.672152 -9.955779 0.209708 0.277174 -42.660935 0.000002 0.000000 0.000002 0.000001 0.000002 0.000001 -5.546724 11.668541 2.442833 -42.804632 -24.538220 26.405983 34.764147 107.847259 -33.401326 -11.227959 18.802005 -0.896793 -0.426185 14.756545 -9.085193 -0.217018 -13.162714 4.783228 0.000000 0.000003 -0.000001 19.387697 11.163767 -18.356919 -0.122746 -0.303403 13.011836 -0.000001 -0.000002 0.000005 4.365707 2.482345 -9.836899 0.357450 -0.462560 21.866705 -0.000001 0.000001 -0.000000 -6.967534 -10.645249 0.698123 0.113407 -0.065236 21.132223 0.000000 0.000001 0.000001 -19.392960 -20.193014 0.968379 0.222136 -0.061979 31.820905 -0.000005 0.000001 -0.000005 0.000002 0.000003 -0.000003 -0.000000 -0.000001 -0.000000 -0.000000 -0.000001 -0.000000 -0.000000 -0.000001 -0.000000 -0.000000 -0.000001 -0.000000 -0.000000 -0.000001 0.000001 -0.000001 -0.000001 0.000001 -0.000000 -0.000001 -0.000000 -0.000000 -0.000001 0.000001 -0.000001 -0.000001 0.000001 0.000001 -0.000001 0.000000 0.000001 -0.000001 0.000000 -0.000000 -0.000000 -0.000000 
0.834022 74.178200 -0.379514 -3.889025 -60.903888 -1.860695 0.000000 0.000002 0.000000 -33.098434 11.526844 28.323229 43.009650 -8.308065 -9.859279 -8.982597 -2.891085 -7.692737 -0.000000 -0.000002 0.000000 -0.000000 -0.000002 0.000000 0.000000 0.000001 -0.000001 -29.618784 -9.203297 -22.539798 45.964427 2.889440 -7.318637 -17.041250 4.617282 19.833285 -0.000000 -0.000001 -0.000000 -0.000000 -0.000001 -0.000000 0.000001 -0.000000 -0.000002 10.590960 0.419544 -1.659900 7.257254 0.468896 -4.778352 7.460054 0.466608 -4.741545 -22.867980 25.805322 11.676786 -5.777269 25.649952 -2.782643 0.000000 -0.000000 0.000000 0.000000 -0.000000 0.000000 0.000000 -0.000000 0.000000 -6.418698 -10.815721 -4.148090 -21.457109 6.690790 -38.715087 4.406712 -47.475637 2.146138 23.256355 -7.467389 15.380468 -1.783017 -11.815743 7.005572 1.104991 16.445762 -3.450759 0.000003 0.000002 0.000000 13.259818 -0.994100 14.834548 -0.164113 0.325799 -26.951590 0.000000 -0.000004 -0.000002 8.532565 -0.380214 3.238586 0.227733 0.647177 -25.747836 0.000002 -0.000004 0.000001 6.140727 3.125687 -12.057604 0.030064 0.294094 -25.971511 -0.000001 -0.000001 0.000001 -5.598532 7.673634 -9.728867 0.208904 0.276916 -42.434248 0.000001 0.000001 -0.000000 0.000001 -0.000003 0.000002 -5.573476 11.590784 2.601379 -43.195189 -24.472079 26.216972 33.970222 108.583055 -32.512281 -11.201330 19.600886 -1.776041 -0.422793 14.740475 -9.092042 -0.211406 -13.177357 4.776917 0.000001 0.000003 0.000000 19.389061 11.163746 -18.339756 -0.122757 -0.303284 13.029352 -0.000002 -0.000002 0.000002 4.365206 2.482186 -9.819369 0.357990 -0.462944 21.884167 -0.000001 0.000000 0.000002 -6.967622 -10.645402 0.715583 0.113405 -0.065615 21.149682 -0.000003 -0.000003 0.000002 -19.395249 -20.194298 0.984132 0.222200 -0.062359 31.838483 -0.000001 -0.000002 -0.000000 -0.000000 -0.000003 -0.000000 -0.000000 0.000002 0.000002 -0.000000 0.000002 0.000002 -0.000000 0.000002 0.000002 -0.000000 0.000002 0.000002 -0.000000 0.000002 -0.000001 -0.000002 0.000003 -0.000003 -0.000000 0.000002 0.000002 -0.000000 0.000002 -0.000001 -0.000002 0.000003 -0.000003 0.000001 0.000002 -0.000001 0.000001 0.000002 -0.000001 0.000000 0.000002 0.000000 
0.792096 74.215714 -0.380721 -3.685688 -60.647572 -1.469396 0.000000 -0.000001 -0.000000 -32.869783 11.183683 27.751229 42.803856 -7.903254 -9.778619 -8.899986 -2.877488 -7.863663 0.000000 -0.000000 0.000000 0.000000 -0.000000 0.000000 -0.000000 0.000001 -0.000001 -29.698424 -9.373146 -22.856798 46.094102 4.116308 -7.248091 -17.063279 3.477923 19.392488 -0.000000 0.000001 -0.000000 -0.000000 0.000001 -0.000000 0.000000 -0.000001 0.000002 10.639921 0.413744 -1.618783 7.369343 0.453081 -4.726280 7.573432 0.423506 -4.679430 -22.543792 25.796371 11.622071 -5.275323 25.598647 -2.912717 -0.000000 -0.000000 0.000000 -0.000000 -0.000000 0.000000 -0.000000 -0.000000 0.000000 -6.440488 -10.884615 -4.337065 -21.175190 6.913532 -38.724970 5.577252 -47.056684 2.897924 23.026046 -7.470475 15.124209 -1.779687 -11.806515 7.009860 1.107513 16.455729 -3.449352 0.000002 0.000001 -0.000001 13.258854 -0.994132 14.824099 -0.164108 0.325397 -26.962001 -0.000002 0.000001 -0.000002 8.531226 -0.380742 3.228200 0.228456 0.647211 -25.758209 -0.000001 0.000000 0.000002 6.140629 3.125751 -12.067788 0.029526 0.294155 -25.981884 -0.000003 0.000001 -0.000000 -5.601393 7.673598 -9.738882 0.208923 0.277426 -42.444674 -0.000001 0.000002 -0.000002 0.000002 -0.000002 0.000004 -5.599835 11.504905 2.762666 -43.512741 -24.472588 26.085457 33.347306 109.244511 -31.801170 -11.146620 20.342325 -2.590670 -0.415613 14.692866 -9.110332 -0.194273 -13.219759 4.757874 0.000001 -0.000001 -0.000001 19.390123 11.163738 -18.289163 -0.122698 -0.303310 13.080225 -0.000003 -0.000001 -0.000000 4.364111 2.481767 -9.768461 0.358293 -0.463190 21.935055 0.000000 0.000001 0.000002 -6.968096 -10.645763 0.766201 0.113363 -0.065987 21.200576 0.000000 -0.000003 0.000002 -19.396672 -20.195445 1.033490 0.222245 -0.062863 31.889299 0.000000 -0.000003 -0.000002 0.000001 -0.000002 -0.000001 0.000003 -0.000001 -0.000000 0.000003 -0.000001 -0.000000 0.000003 -0.000001 -0.000000 0.000003 -0.000001 -0.000000 0.000003 -0.000001 0.000001 0.000001 0.000003 -0.000000 0.000003 -0.000001 -0.000000 0.000003 -0.000001 0.000001 0.000001 0.000003 -0.000000 0.000001 -0.000001 0.000001 0.000001 -0.000001 0.000001 0.000000 -0.000001 -0.000000 
0.739518 74.249329 -0.375969 -3.395800 -60.395859 -1.036364 -0.000000 0.000001 -0.000000 -32.720322 10.851594 27.246461 42.620555 -7.548905 -9.707998 -8.831009 -2.864999 -8.018878 -0.000000 0.000001 -0.000000 -0.000000 0.000001 -0.000000 -0.000001 -0.000003 0.000001 -29.806160 -9.542635 -23.151792 46.071183 4.136958 -7.245384 -17.125303 3.467001 19.392731 0.000000 -0.000002 0.000000 0.000000 -0.000002 0.000000 -0.000001 0.000001 -0.000000 10.688479 0.404134 -1.599677 7.474949 0.433654 -4.690579 7.681316 0.379652 -4.629594 -22.293813 25.770338 11.684727 -4.788367 25.569006 -3.031154 -0.000000 -0.000000 0.000000 -0.000000 -0.000000 0.000000 -0.000000 -0.000000 0.000000 -6.435434 -10.967009 -4.381020 -20.957486 7.136082 -38.771019 6.404513 -46.581296 3.444867 22.835418 -7.451222 14.856010 -1.773518 -11.778465 7.021328 1.117321 16.481798 -3.439125 0.000001 -0.000003 -0.000000 13.258213 -0.994230 14.793609 -0.164050 0.325100 -26.992459 -0.000001 0.000000 -0.000005 8.530101 -0.380804 3.197757 0.228942 0.647368 -25.788704 0.000002 -0.000001 -0.000005 6.140290 3.126103 -12.098275 0.029275 0.294301 -26.012345 -0.000002 0.000001 -0.000000 -5.601556 7.673762 -9.769273 0.209021 0.278156 -42.475147 0.000002 -0.000001 0.000001 0.000000 0.000003 0.000001 -5.626213 11.414995 2.928153 -43.757265 -24.499844 25.977048 33.032294 109.869569 -31.394770 -11.032546 21.015249 -3.371331 -0.404253 14.616190 -9.139757 -0.167414 -13.288506 4.728254 0.000001 0.000002 -0.000002 19.390970 11.163731 -18.207638 -0.122624 -0.303396 13.161974 -0.000001 0.000001 0.000004 4.362502 2.481065 -9.686594 0.358540 -0.463455 22.016874 -0.000000 -0.000001 0.000001 -6.968815 -10.646409 0.847658 0.113335 -0.066685 21.282325 -0.000004 -0.000001 -0.000001 -19.397951 -20.196410 1.113743 0.222299 -0.063567 31.971033 0.000002 -0.000002 -0.000002 -0.000002 -0.000000 -0.000002 -0.000000 -0.000000 -0.000002 -0.000000 -0.000000 -0.000002 -0.000000 -0.000000 -0.000002 -0.000000 -0.000000 -0.000002 -0.000000 -0.000000 -0.000001 -0.000002 -0.000000 -0.000001 -0.000000 -0.000000 -0.000002 -0.000000 -0.000000 -0.000001 -0.000002 -0.000000 -0.000001 -0.000000 0.000002 -0.000001 -0.000000 0.000002 -0.000001 -0.000000 0.000001 -0.000000 
